<svg xmlns="http://www.w3.org/2000/svg" width="1171.8" height="398.526" viewBox="0 0 310.039 105.443"><path fill="#fff" d="M13.861 23.917h282.315V78.93H13.861z"/><path d="M12.06 51.194v-26.77l8.802-4.456c4.842-2.45 10.094-5.13 11.671-5.954l2.869-1.498V66.01l-9.99 5.05c-5.495 2.777-10.747 5.466-11.671 5.976l-1.682.928zM274.636 89.137v-4.38l7.898.006 7.897.006-2.799 1.575c-1.54.867-5.093 2.836-7.897 4.375l-5.099 2.8z" fill="#27aae1"/><path xmlns="http://www.w3.org/2000/svg" d="M 268.81 93.764 V 84.757 H 7.859 V 20.367 L 24.587 11.52 L 41.317 2.673 L 41.362 11.493 L 41.408 20.313 H 302.18 L 302.136 52.742 L 302.091 85.171 L 287.79 92.738 C 279.924 96.9 272.436 100.86 271.15 101.538 L 268.81 102.771 Z M 282.36 88.887 C 286.511 86.691 289.942 84.864 289.982 84.826 C 290.022 84.788 286.586 84.756 282.346 84.756 H 274.636 V 88.817 C 274.636 91.051 274.676 92.878 274.723 92.878 C 274.771 92.878 278.208 91.082 282.36 88.887 Z M 296.176 52.535 V 26.14 H 41.406 L 41.36 46.63 L 41.315 67.121 L 30.457 72.861 C 24.485 76.018 19.523 78.675 19.431 78.765 C 19.328 78.866 72.562 78.929 157.719 78.929 H 296.175 Z M 101.37 61.7 C 100.194 61.327 98.943 60.058 98.502 58.791 C 98.2 57.923 98.168 57.264 98.168 51.916 C 98.168 45.041 98.228 44.686 99.65 43.268 C 100.81 42.11 101.907 41.795 104.487 41.878 C 106.232 41.934 106.587 42.002 107.494 42.446 C 108.662 43.019 109.364 43.856 109.854 45.264 C 110.137 46.073 110.174 46.838 110.174 51.916 C 110.174 58.189 110.132 58.52 109.156 59.973 C 108.739 60.594 108.302 60.968 107.538 61.358 C 106.565 61.854 106.342 61.894 104.36 61.932 C 102.831 61.962 101.986 61.896 101.37 61.7 Z M 104.965 58.335 C 105.191 58.12 105.23 57.168 105.23 51.916 C 105.23 46.404 105.199 45.718 104.937 45.456 C 104.517 45.036 103.724 45.086 103.343 45.557 C 103.048 45.921 103.023 46.424 103.023 51.944 V 57.935 L 103.467 58.379 C 103.939 58.851 104.438 58.836 104.965 58.335 Z M 156.755 61.653 C 155.471 61.209 154.678 60.543 154.151 59.465 C 153.409 57.945 153.309 56.886 153.378 51.229 C 153.436 46.376 153.468 45.934 153.82 45.064 C 154.375 43.689 154.98 43 156.12 42.44 C 157.079 41.97 157.271 41.94 159.433 41.94 C 161.63 41.94 161.773 41.963 162.787 42.47 C 164.592 43.372 165.347 44.997 165.347 47.973 V 49.268 H 160.615 L 160.554 47.508 C 160.507 46.162 160.424 45.68 160.2 45.456 C 159.776 45.032 158.987 45.086 158.6 45.566 C 158.294 45.943 158.276 46.356 158.324 52.026 C 158.378 58.513 158.366 58.426 159.277 58.699 C 159.516 58.769 159.801 58.687 160.071 58.469 C 160.457 58.157 160.498 57.973 160.554 56.346 L 160.614 54.564 H 165.399 L 165.304 56.43 C 165.221 58.062 165.138 58.439 164.646 59.439 C 164.022 60.707 163.306 61.302 161.895 61.727 C 160.692 62.089 157.901 62.049 156.755 61.653 Z M 77.245 51.916 V 42.03 H 80.564 L 82.304 46.098 L 84.044 50.165 L 84.091 46.092 L 84.139 42.018 L 86.122 42.068 L 88.105 42.118 V 61.716 L 86.489 61.766 L 84.873 61.816 L 84.068 59.736 C 83.626 58.591 82.828 56.543 82.296 55.183 L 81.329 52.711 L 81.318 57.258 L 81.308 61.804 H 77.247 Z M 121.872 53.726 L 121.826 45.648 L 120.458 45.597 L 119.09 45.545 V 42.03 H 129.506 V 45.546 L 128.138 45.598 L 126.77 45.649 L 126.724 53.727 L 126.678 61.804 H 121.918 Z M 138.687 51.916 V 42.03 H 143.454 V 61.804 H 138.687 Z M 174.882 51.916 V 42.03 H 184.062 V 45.384 H 179.649 V 49.622 H 183.003 V 52.963 L 181.37 53.013 L 179.737 53.065 V 58.538 L 181.9 58.588 L 184.063 58.637 V 61.804 H 174.882 Z M 192.95 61.072 C 193.008 60.649 193.46 56.37 193.953 51.562 C 194.446 46.756 194.889 42.636 194.938 42.406 L 195.026 41.989 L 198.063 42.077 C 199.733 42.125 201.416 42.261 201.803 42.381 C 203.267 42.832 204.187 44.276 204.189 46.125 C 204.192 48.663 203.169 50.57 201.557 51.034 L 201.1 51.165 L 201.63 51.375 C 203.326 52.046 204.044 53.853 203.657 56.475 C 203.294 58.932 202.383 60.391 200.695 61.22 C 199.715 61.702 199.595 61.717 196.266 61.778 L 192.845 61.841 Z M 199.61 59.408 C 200.54 58.876 201.04 57.703 201.135 55.836 C 201.264 53.276 200.567 52.491 198.01 52.316 C 197.233 52.262 196.593 52.25 196.587 52.288 C 196.416 53.328 195.817 59.728 195.885 59.798 C 195.937 59.853 196.661 59.865 197.492 59.826 C 198.572 59.776 199.177 59.656 199.611 59.408 Z M 200.44 49.866 C 201.268 49.264 201.792 47.967 201.8 46.496 C 201.806 45.354 201.758 45.166 201.357 44.766 C 200.98 44.388 200.643 44.284 199.274 44.123 C 198.375 44.016 197.589 43.981 197.526 44.043 C 197.435 44.135 196.821 49.166 196.784 50.128 C 196.768 50.535 199.819 50.316 200.439 49.866 Z M 211.82 61.591 C 211.866 61.465 213.284 57.011 214.97 51.695 L 218.037 42.029 H 220.588 L 220.692 42.779 C 220.814 43.663 222.729 61.392 222.729 61.636 C 222.729 61.728 222.176 61.803 221.501 61.803 H 220.273 L 220.183 61.229 C 220.135 60.914 220.032 59.782 219.955 58.713 L 219.815 56.771 H 215.776 L 215.052 59.243 L 214.328 61.715 L 213.033 61.767 C 212.031 61.807 211.757 61.767 211.821 61.591 Z M 219.607 54.785 C 219.65 54.712 219.539 52.985 219.361 50.945 S 219.033 46.965 219.029 46.634 C 219.024 46.302 218.979 46.073 218.928 46.124 C 218.833 46.218 216.382 54.539 216.376 54.785 C 216.374 54.858 217.083 54.917 217.951 54.917 S 219.565 54.857 219.607 54.785 Z M 232.097 61.405 C 232.104 61.187 232.562 56.758 233.115 51.563 L 234.121 42.117 L 237.031 42.124 C 239.341 42.129 240.133 42.195 240.859 42.444 C 242.664 43.059 243.555 44.734 243.317 47.062 C 243.081 49.362 242.349 50.834 241.088 51.542 C 240.701 51.76 240.384 51.978 240.384 52.027 C 240.384 52.165 241.987 60.961 242.094 61.406 C 242.185 61.791 242.148 61.803 240.844 61.803 C 240.039 61.803 239.501 61.73 239.501 61.621 C 239.501 61.443 238.185 53.907 237.983 52.923 C 237.883 52.439 237.858 52.43 236.793 52.481 L 235.706 52.534 L 235.231 56.859 C 234.971 59.239 234.751 61.324 234.746 61.494 C 234.736 61.76 234.549 61.803 233.41 61.803 C 232.151 61.803 232.087 61.783 232.098 61.406 Z M 239.094 50.16 C 240.135 49.687 240.601 48.733 240.69 46.884 C 240.782 44.994 240.467 44.446 239.116 44.148 C 238.6 44.034 237.82 43.968 237.383 44 L 236.588 44.06 L 236.291 46.796 C 235.845 50.896 235.753 50.504 237.162 50.5 C 237.95 50.497 238.605 50.382 239.094 50.16 Z M 252.038 61.23 C 252.038 60.914 252.476 56.531 253.009 51.49 C 253.543 46.449 253.979 42.248 253.979 42.155 C 253.979 41.905 260.103 42.109 260.865 42.385 C 262.408 42.941 263.263 44.095 263.447 45.867 C 263.569 47.043 262.747 55.517 262.36 57.08 C 262.039 58.374 261.505 59.439 260.802 60.186 C 259.622 61.438 258.196 61.803 254.476 61.803 H 252.037 L 252.039 61.229 Z M 257.823 59.588 C 258.784 59.186 259.25 58.667 259.548 57.664 C 259.694 57.174 260.063 54.424 260.368 51.556 C 260.869 46.836 260.898 46.266 260.673 45.561 C 260.5 45.022 260.255 44.683 259.878 44.465 C 259.218 44.082 256.74 43.823 256.558 44.118 C 256.458 44.28 254.862 58.866 254.862 59.618 C 254.862 59.964 256.976 59.941 257.822 59.588 Z M 26.265 68.335 L 35.402 63.503 V 12.516 L 33.945 13.29 C 33.144 13.716 28.297 16.281 23.175 18.99 L 13.862 23.916 V 74.901 L 15.495 74.033 C 16.393 73.556 21.239 70.992 26.265 68.335 Z" fill="#393939"/><path d="M 96.992 101.711 C 96.085 101.436 95.42 100.912 95.074 100.198 C 94.764 99.555 94.724 99.103 94.724 96.088 V 92.702 H 95.607 V 95.885 C 95.607 99.26 95.722 99.879 96.473 100.548 C 97.006 101.023 98.71 101.139 99.46 100.751 C 100.45 100.24 100.551 99.804 100.551 96.065 V 92.702 H 101.611 V 95.606 C 101.611 99.136 101.433 100.106 100.642 100.896 C 99.81 101.729 98.224 102.083 96.992 101.711 Z M 106.441 101.725 A 3.85 3.85 0 0 1 104.131 99.978 C 103.73 99.293 103.643 98.908 103.584 97.556 C 103.524 96.183 103.571 95.814 103.908 95.03 C 104.413 93.857 105.235 93.14 106.495 92.774 C 107.522 92.475 108.87 92.517 109.817 92.877 C 110.217 93.029 110.25 93.099 110.077 93.423 C 109.93 93.698 109.78 93.763 109.497 93.675 C 108.85 93.472 107.301 93.359 106.823 93.48 C 106.073 93.667 104.99 94.777 104.775 95.577 C 104.254 97.513 104.753 99.69 105.907 100.513 C 106.398 100.863 106.673 100.91 108.187 100.901 C 109.695 100.891 109.909 100.928 109.909 101.191 A 0.471 0.471 0 0 1 109.629 101.599 C 109.135 101.789 107.013 101.873 106.441 101.725 Z M 133.101 101.725 A 3.858 3.858 0 0 1 130.785 99.969 C 130.337 99.207 130.301 99.003 130.301 97.204 C 130.301 95.399 130.336 95.203 130.791 94.428 C 131.534 93.164 132.585 92.618 134.273 92.618 C 135.963 92.618 137.013 93.164 137.756 94.428 C 138.211 95.203 138.246 95.398 138.246 97.204 C 138.246 99.009 138.211 99.204 137.756 99.98 C 137.115 101.07 136.086 101.679 134.7 101.786 C 134.126 101.831 133.406 101.803 133.1 101.725 Z M 135.864 100.603 C 136.722 100.019 137.074 99.446 137.287 98.289 C 137.603 96.564 137.237 95.019 136.297 94.107 C 135.739 93.567 135.56 93.501 134.49 93.442 C 133.471 93.387 133.217 93.436 132.7 93.79 C 131.807 94.402 131.463 94.969 131.272 96.142 C 130.8 99.044 132.009 101 134.273 101 C 135.027 101 135.427 100.9 135.864 100.603 Z M 170.354 101.725 A 3.858 3.858 0 0 1 168.038 99.969 C 167.59 99.207 167.554 99.003 167.554 97.204 C 167.554 95.399 167.589 95.203 168.044 94.428 C 168.788 93.164 169.838 92.618 171.527 92.618 S 174.267 93.164 175.009 94.428 C 175.465 95.203 175.499 95.398 175.499 97.204 C 175.499 99.009 175.465 99.204 175.009 99.98 C 174.369 101.07 173.339 101.679 171.953 101.786 C 171.379 101.831 170.659 101.803 170.354 101.725 Z M 173.118 100.603 C 173.976 100.019 174.328 99.446 174.54 98.289 C 174.857 96.564 174.49 95.019 173.55 94.107 C 172.993 93.567 172.813 93.501 171.744 93.442 C 170.724 93.387 170.47 93.436 169.954 93.79 C 169.061 94.402 168.717 94.969 168.526 96.142 C 168.054 99.044 169.262 101 171.527 101 C 172.281 101 172.681 100.9 173.117 100.603 Z M 195.602 101.725 A 3.858 3.858 0 0 1 193.286 99.969 C 192.838 99.207 192.802 99.003 192.802 97.204 C 192.802 95.399 192.837 95.203 193.292 94.428 C 194.035 93.164 195.086 92.618 196.775 92.618 C 198.463 92.618 199.515 93.164 200.257 94.428 C 200.713 95.203 200.747 95.398 200.747 97.204 C 200.747 99.009 200.713 99.204 200.257 99.98 C 199.616 101.07 198.587 101.679 197.201 101.786 C 196.627 101.831 195.907 101.803 195.602 101.725 Z M 198.365 100.603 C 199.224 100.019 199.575 99.446 199.788 98.289 C 200.104 96.564 199.738 95.019 198.798 94.107 C 198.24 93.567 198.061 93.501 196.991 93.442 C 195.972 93.387 195.718 93.436 195.201 93.79 C 194.309 94.402 193.965 94.969 193.774 96.142 C 193.301 99.044 194.51 101 196.774 101 C 197.528 101 197.929 100.9 198.365 100.603 Z M 220.052 101.711 C 219.145 101.436 218.48 100.912 218.134 100.198 C 217.824 99.555 217.785 99.103 217.785 96.088 V 92.702 H 218.668 V 95.885 C 218.668 99.261 218.783 99.879 219.533 100.548 C 220.066 101.023 221.77 101.139 222.521 100.751 C 223.51 100.24 223.611 99.804 223.611 96.065 V 92.702 H 224.671 V 95.606 C 224.671 99.136 224.493 100.106 223.703 100.896 C 222.871 101.729 221.283 102.083 220.053 101.711 Z M 258.084 101.677 C 257.441 101.533 257.334 101.444 257.334 101.057 C 257.334 100.671 257.392 100.623 257.731 100.724 C 258.397 100.924 260.277 101.053 260.757 100.932 C 261.975 100.627 262.349 99.093 261.399 98.294 A 4.241 4.241 0 0 0 260.207 97.637 C 258.243 97.001 257.512 96.222 257.511 94.763 C 257.511 94.061 257.599 93.822 258.012 93.409 C 258.741 92.679 259.796 92.439 261.277 92.666 C 261.941 92.766 262.524 92.89 262.573 92.939 C 262.623 92.988 262.609 93.199 262.543 93.407 C 262.458 93.672 262.333 93.751 262.129 93.669 C 261.513 93.422 259.809 93.364 259.305 93.572 C 258.774 93.792 258.393 94.396 258.393 95.019 C 258.393 95.587 259.284 96.329 260.496 96.771 C 262.358 97.45 263.165 98.479 262.908 99.847 C 262.61 101.436 260.53 102.225 258.084 101.677 Z M 78.481 97.204 V 92.702 H 83.425 V 93.584 H 79.541 V 96.585 H 83.248 V 97.469 H 79.541 V 100.823 H 83.425 V 101.706 H 78.481 Z M 85.367 97.182 V 92.658 L 87.442 92.741 C 89.826 92.837 90.732 93.125 91.54 94.045 C 92.273 94.88 92.679 96.37 92.539 97.712 C 92.242 100.55 90.598 101.706 86.859 101.706 H 85.367 Z M 89.693 100.492 C 90.941 99.918 91.524 98.874 91.539 97.186 C 91.549 96.058 91.277 95.23 90.684 94.578 C 90.013 93.84 89.259 93.584 87.756 93.584 H 86.426 V 100.824 L 87.706 100.82 C 88.568 100.817 89.218 100.71 89.693 100.491 Z M 112.618 97.2 C 114.299 92.974 114.438 92.696 114.832 92.741 C 115.208 92.785 115.439 93.26 116.995 97.19 C 117.953 99.61 118.736 101.616 118.736 101.648 C 118.736 101.68 118.518 101.706 118.251 101.705 C 117.809 101.705 117.717 101.581 117.229 100.337 L 116.692 98.969 H 112.881 L 112.353 100.338 C 111.867 101.598 111.785 101.706 111.325 101.706 H 110.826 Z M 116.222 97.778 C 116.177 97.656 115.878 96.802 115.556 95.88 C 115.234 94.957 114.925 94.148 114.868 94.082 C 114.811 94.016 114.439 94.87 114.042 95.98 L 113.321 97.998 H 114.811 C 115.93 97.998 116.282 97.943 116.221 97.778 Z M 121.738 97.645 V 93.585 H 120.325 C 118.937 93.585 118.913 93.577 118.913 93.143 V 92.702 H 125.622 V 93.143 C 125.622 93.577 125.599 93.584 124.21 93.584 H 122.797 V 101.706 H 121.737 Z M 127.035 97.204 V 92.702 H 128.094 V 101.706 H 127.034 Z M 140.453 97.204 V 92.702 H 141.027 C 141.577 92.704 141.698 92.852 144.072 96.442 L 146.544 100.182 L 146.592 96.442 L 146.64 92.702 H 147.515 V 101.705 L 146.941 101.701 C 146.39 101.698 146.271 101.551 143.856 97.861 L 141.345 94.024 L 141.34 97.864 L 141.335 101.704 H 140.452 Z M 150.578 97.199 C 152.258 92.974 152.397 92.696 152.792 92.741 C 153.168 92.784 153.399 93.259 154.954 97.189 C 155.912 99.609 156.696 101.615 156.696 101.647 C 156.696 101.679 156.478 101.705 156.211 101.705 C 155.769 101.705 155.677 101.581 155.189 100.337 L 154.652 98.969 H 150.841 L 150.313 100.337 C 149.826 101.597 149.745 101.706 149.285 101.706 H 148.785 Z M 154.181 97.777 C 154.137 97.656 153.838 96.802 153.516 95.879 C 153.194 94.957 152.884 94.148 152.827 94.082 C 152.77 94.016 152.399 94.87 152.002 95.98 L 151.28 97.998 H 152.771 C 153.889 97.998 154.242 97.943 154.181 97.778 Z M 158.109 97.204 V 92.7 H 159.168 V 100.822 H 163.052 V 101.706 H 158.109 Z M 177.707 97.181 V 92.656 L 179.605 92.736 C 182.471 92.858 183.356 93.478 183.356 95.36 C 183.356 97.095 182.334 97.956 180.069 98.127 L 178.766 98.226 V 101.706 H 177.706 Z M 181.899 96.711 C 182.284 96.326 182.385 96.061 182.385 95.438 C 182.385 94.815 182.285 94.55 181.899 94.165 C 181.472 93.738 181.252 93.671 180.089 93.612 L 178.766 93.545 V 97.33 L 180.089 97.264 C 181.252 97.204 181.472 97.137 181.899 96.711 Z M 185.475 97.181 V 92.656 L 187.373 92.736 C 190.239 92.858 191.125 93.478 191.125 95.36 C 191.125 97.095 190.102 97.956 187.838 98.127 L 186.534 98.226 V 101.706 H 185.475 Z M 189.668 96.711 C 190.053 96.326 190.154 96.061 190.154 95.438 C 190.154 94.815 190.053 94.55 189.668 94.165 C 189.241 93.738 189.02 93.671 187.858 93.612 L 186.534 93.545 V 97.33 L 187.858 97.264 C 189.02 97.204 189.241 97.137 189.668 96.711 Z M 202.954 97.181 V 92.657 L 204.94 92.736 C 207.818 92.851 208.604 93.394 208.604 95.27 C 208.604 96.258 208.221 96.962 207.442 97.407 L 206.863 97.738 L 208.087 99.722 L 209.311 101.706 H 208.731 C 208.181 101.706 208.092 101.609 207.083 99.896 L 206.018 98.086 L 205.016 98.033 L 204.014 97.98 V 101.706 H 202.954 Z M 206.833 96.853 C 207.77 96.369 207.961 94.722 207.163 94 C 206.893 93.755 206.453 93.657 205.408 93.61 L 204.014 93.547 V 97.115 H 205.17 C 205.846 97.115 206.536 97.007 206.833 96.853 Z M 212.488 97.645 V 93.585 H 211.076 C 209.686 93.585 209.663 93.576 209.663 93.143 V 92.7 H 216.373 V 93.142 C 216.373 93.576 216.349 93.583 214.96 93.583 H 213.548 V 101.705 H 212.488 Z M 227.142 97.203 V 92.701 L 227.716 92.702 C 228.267 92.703 228.388 92.852 230.762 96.442 L 233.234 100.182 L 233.281 96.442 L 233.329 92.701 H 234.205 V 101.705 L 233.631 101.702 C 233.079 101.699 232.961 101.551 230.546 97.862 L 228.034 94.025 L 228.03 97.865 L 228.025 101.705 H 227.143 Z M 236.677 97.203 V 92.701 H 237.736 V 101.706 H 236.676 Z M 241.973 97.645 V 93.585 H 240.561 C 239.171 93.585 239.148 93.576 239.148 93.143 V 92.7 H 245.858 V 93.142 C 245.858 93.576 245.834 93.583 244.445 93.583 H 243.033 V 101.705 H 241.973 Z M 247.093 97.203 V 92.701 H 248.153 V 101.706 H 247.093 Z M 250.801 97.203 V 92.701 H 255.745 V 93.584 H 251.86 V 96.586 H 255.568 V 97.468 H 251.86 V 100.823 H 255.745 V 101.706 H 250.8 Z" fill="white"/></svg>